<svg xmlns="http://www.w3.org/2000/svg" viewBox="0 0 73.09 67.97"><defs><style>.cls-1,.cls-2{fill:none;stroke-miterlimit:10;}.cls-1{stroke:#3169af;stroke-width:3px;}.cls-2{stroke:#23292e;stroke-width:4px;}.cls-3{fill:#3aaf72;}</style></defs><g id="Capa_2" data-name="Capa 2"><g id="Fondo"><circle class="cls-1" cx="43.78" cy="29.31" r="27.81"/><circle class="cls-1" cx="28.32" cy="47.04" r="19.43"/><path class="cls-2" d="M61.6,33.62c1.48,1.19,1.61,2.51.35,4-.28.33-.59.62-.9.92q-5.47,5.49-11,11c-.29.3-.84.52-.57,1.14a2.79,2.79,0,0,0,3.17,1.48,4.7,4.7,0,0,1,5,1.45,4.53,4.53,0,0,1,.94,5,4.64,4.64,0,0,1-4,3.1,4.81,4.81,0,0,1-5.09-6.56c.59-1.59-.76-1.91-1.43-2.61s-1.19.23-1.61.64c-3,2.91-5.87,5.85-8.81,8.78-1,1-2,2-3,3a2.3,2.3,0,0,1-3.51-.23,20.74,20.74,0,0,1-4-7.11,19.84,19.84,0,0,1-.47-11.24c.37-1.43-.65-2-1.41-2.58s-1.19.34-1.62.76c-2.11,2.05-4.17,4.17-6.27,6.23s-3.47,1.91-5.4,0q-4.23-4.2-8.44-8.43c-2-2-2-3.44,0-5.46S7.76,32.43,10,30.34c.78-.76.95-1.26,0-2a20.88,20.88,0,0,1-2.31-2.39A6.92,6.92,0,0,1,8,16.19q2.68-2.85,5.54-5.53a6.93,6.93,0,0,1,9.54-.34,28.27,28.27,0,0,1,2.69,2.56c.62.66,1.06.62,1.68,0,2.2-2.26,4.45-4.48,6.7-6.71,1.88-1.87,3.39-1.87,5.29,0l8.34,8.34c2.15,2.14,2.15,3.61,0,5.77s-4.29,4.28-6.43,6.44c-.3.31-.82.54-.52,1.16a2.74,2.74,0,0,0,3,1.43,16.08,16.08,0,0,1,4.2-.43A20.34,20.34,0,0,1,61.6,33.62ZM28.24,52.13a19.07,19.07,0,0,0,3.84,10.29c.59.8,1,.89,1.8.13q13-13,26-26c.76-.75.57-1.11-.17-1.66A17.68,17.68,0,0,0,48.29,31C38.74,30.44,27.41,40.6,28.24,52.13ZM9.62,24.89q8.62,8.59,17.24,17.2c.66.65.94.57,1.36-.24a24.75,24.75,0,0,1,11-11c.72-.37.87-.61.23-1.25C33.63,23.89,27.9,18.08,22.12,12.33a4.85,4.85,0,0,0-6.94-.27c-2,1.81-3.92,3.81-5.83,5.77A5.07,5.07,0,0,0,8,21.17,5.55,5.55,0,0,0,9.62,24.89Zm5.94,24.5c2.36-2.35,4.7-4.71,7.07-7,.52-.5.5-.88,0-1.38q-4.78-4.73-9.51-9.5c-.51-.51-.86-.52-1.37,0-2.3,2.35-4.63,4.66-7,7a1.28,1.28,0,0,0,0,2.09c2.94,2.92,5.86,5.85,8.79,8.78a1.64,1.64,0,0,0,1.07.58A1.38,1.38,0,0,0,15.56,49.39ZM28.93,16c3,3.05,6.1,6.08,9.12,9.15.6.6,1.05.71,1.69,0,2.21-2.26,4.45-4.49,6.69-6.7a1.45,1.45,0,0,0,0-2.4q-4.29-4.23-8.51-8.5a1.38,1.38,0,0,0-2.29,0c-2.25,2.27-4.53,4.53-6.78,6.79a1.22,1.22,0,0,0-.53.93A8.71,8.71,0,0,0,28.93,16ZM56.77,56.83A2.71,2.71,0,1,0,54,59.45,2.68,2.68,0,0,0,56.77,56.83Z"/><path class="cls-3" d="M61.6,33.62c1.48,1.19,1.61,2.51.35,4-.28.33-.59.62-.9.92q-5.47,5.49-11,11c-.29.3-.84.52-.57,1.14a2.79,2.79,0,0,0,3.17,1.48,4.7,4.7,0,0,1,5,1.45,4.53,4.53,0,0,1,.94,5,4.64,4.64,0,0,1-4,3.1,4.81,4.81,0,0,1-5.09-6.56c.59-1.59-.76-1.91-1.43-2.61s-1.19.23-1.61.64c-3,2.91-5.87,5.85-8.81,8.78-1,1-2,2-3,3a2.3,2.3,0,0,1-3.51-.23,20.74,20.74,0,0,1-4-7.11,19.84,19.84,0,0,1-.47-11.24c.37-1.43-.65-2-1.41-2.58s-1.19.34-1.62.76c-2.11,2.05-4.17,4.17-6.27,6.23s-3.47,1.91-5.4,0q-4.23-4.2-8.44-8.43c-2-2-2-3.44,0-5.46S7.76,32.43,10,30.34c.78-.76.95-1.26,0-2a20.88,20.88,0,0,1-2.31-2.39A6.92,6.92,0,0,1,8,16.19q2.68-2.85,5.54-5.53a6.93,6.93,0,0,1,9.54-.34,28.27,28.27,0,0,1,2.69,2.56c.62.66,1.06.62,1.68,0,2.2-2.26,4.45-4.48,6.7-6.71,1.88-1.87,3.39-1.87,5.29,0l8.34,8.34c2.15,2.14,2.15,3.61,0,5.77s-4.29,4.28-6.43,6.44c-.3.31-.82.54-.52,1.16a2.74,2.74,0,0,0,3,1.43,16.08,16.08,0,0,1,4.2-.43A20.34,20.34,0,0,1,61.6,33.62ZM28.24,52.13a19.07,19.07,0,0,0,3.84,10.29c.59.8,1,.89,1.8.13q13-13,26-26c.76-.75.57-1.11-.17-1.66A17.68,17.68,0,0,0,48.29,31C38.74,30.44,27.41,40.6,28.24,52.13ZM9.62,24.89q8.62,8.59,17.24,17.2c.66.65.94.57,1.36-.24a24.75,24.75,0,0,1,11-11c.72-.37.87-.61.23-1.25C33.63,23.89,27.9,18.08,22.12,12.33a4.85,4.85,0,0,0-6.94-.27c-2,1.81-3.92,3.81-5.83,5.77A5.07,5.07,0,0,0,8,21.17,5.55,5.55,0,0,0,9.62,24.89Zm5.94,24.5c2.36-2.35,4.7-4.71,7.07-7,.52-.5.5-.88,0-1.38q-4.78-4.73-9.51-9.5c-.51-.51-.86-.52-1.37,0-2.3,2.35-4.63,4.66-7,7a1.28,1.28,0,0,0,0,2.09c2.94,2.92,5.86,5.85,8.79,8.78a1.64,1.64,0,0,0,1.07.58A1.38,1.38,0,0,0,15.56,49.39ZM28.93,16c3,3.05,6.1,6.08,9.12,9.15.6.6,1.05.71,1.69,0,2.21-2.26,4.45-4.49,6.69-6.7a1.45,1.45,0,0,0,0-2.4q-4.29-4.23-8.51-8.5a1.38,1.38,0,0,0-2.29,0c-2.25,2.27-4.53,4.53-6.78,6.79a1.22,1.22,0,0,0-.53.93A8.71,8.71,0,0,0,28.93,16ZM56.77,56.83A2.71,2.71,0,1,0,54,59.45,2.68,2.68,0,0,0,56.77,56.83Z"/></g></g></svg>